<mxfile host="Electron" modified="2024-06-19T12:58:15.324Z" agent="Mozilla/5.0 (Macintosh; Intel Mac OS X 10_15_7) AppleWebKit/537.36 (KHTML, like Gecko) draw.io/24.4.8 Chrome/124.0.6367.207 Electron/30.0.6 Safari/537.36" etag="0FQFCUMIBiXh5MExCINI" version="24.4.8" type="device">
  <diagram name="Page-1" id="IMfhUJ0kENWqfCzqepWq">
    <mxGraphModel dx="1500" dy="1030" grid="1" gridSize="10" guides="1" tooltips="1" connect="1" arrows="1" fold="1" page="1" pageScale="1" pageWidth="827" pageHeight="1169" math="0" shadow="0">
      <root>
        <mxCell id="0" />
        <mxCell id="1" parent="0" />
        <mxCell id="mkdmuHdhpeaHbkRN50OY-3" value="Default Local OMAG Server Platform" style="rounded=0;whiteSpace=wrap;html=1;verticalAlign=top;fillColor=#fff2cc;strokeColor=#d6b656;" vertex="1" parent="1">
          <mxGeometry x="210" y="200" width="330" height="320" as="geometry" />
        </mxCell>
        <mxCell id="mkdmuHdhpeaHbkRN50OY-1" value="view-server" style="rounded=0;whiteSpace=wrap;html=1;fillColor=#d5e8d4;strokeColor=#82b366;" vertex="1" parent="1">
          <mxGeometry x="240" y="250" width="120" height="60" as="geometry" />
        </mxCell>
        <mxCell id="mkdmuHdhpeaHbkRN50OY-2" value="metadata-access-store" style="rounded=0;whiteSpace=wrap;html=1;fillColor=#d5e8d4;strokeColor=#82b366;" vertex="1" parent="1">
          <mxGeometry x="240" y="330" width="120" height="60" as="geometry" />
        </mxCell>
        <mxCell id="mkdmuHdhpeaHbkRN50OY-4" value="integration-daemon" style="rounded=0;whiteSpace=wrap;html=1;fillColor=#d5e8d4;strokeColor=#82b366;" vertex="1" parent="1">
          <mxGeometry x="380" y="420" width="120" height="60" as="geometry" />
        </mxCell>
        <mxCell id="mkdmuHdhpeaHbkRN50OY-6" value="integration-daemon" style="rounded=0;whiteSpace=wrap;html=1;fillColor=#d5e8d4;strokeColor=#82b366;" vertex="1" parent="1">
          <mxGeometry x="240" y="420" width="120" height="60" as="geometry" />
        </mxCell>
        <mxCell id="mkdmuHdhpeaHbkRN50OY-7" value="simple-access-store" style="rounded=0;whiteSpace=wrap;html=1;fillColor=#d5e8d4;strokeColor=#82b366;" vertex="1" parent="1">
          <mxGeometry x="380" y="330" width="120" height="60" as="geometry" />
        </mxCell>
        <mxCell id="mkdmuHdhpeaHbkRN50OY-8" value="view-server" style="rounded=0;whiteSpace=wrap;html=1;verticalAlign=top;fillColor=#d5e8d4;strokeColor=#82b366;" vertex="1" parent="1">
          <mxGeometry x="200" y="670" width="280" height="170" as="geometry" />
        </mxCell>
        <mxCell id="mkdmuHdhpeaHbkRN50OY-11" style="edgeStyle=orthogonalEdgeStyle;rounded=0;orthogonalLoop=1;jettySize=auto;html=1;" edge="1" parent="1" source="mkdmuHdhpeaHbkRN50OY-9" target="mkdmuHdhpeaHbkRN50OY-10">
          <mxGeometry relative="1" as="geometry" />
        </mxCell>
        <mxCell id="mkdmuHdhpeaHbkRN50OY-9" value="Runtime Manager OMVS" style="rounded=1;whiteSpace=wrap;html=1;verticalAlign=top;fillColor=#e1d5e7;strokeColor=#9673a6;" vertex="1" parent="1">
          <mxGeometry x="225" y="710" width="230" height="110" as="geometry" />
        </mxCell>
        <mxCell id="mkdmuHdhpeaHbkRN50OY-10" value="OMAG Server Platform" style="rounded=0;whiteSpace=wrap;html=1;fillColor=#fff2cc;strokeColor=#d6b656;" vertex="1" parent="1">
          <mxGeometry x="280" y="910" width="120" height="60" as="geometry" />
        </mxCell>
        <mxCell id="mkdmuHdhpeaHbkRN50OY-12" value="OMAG Server Platform Connector" style="ellipse;whiteSpace=wrap;html=1;" vertex="1" parent="1">
          <mxGeometry x="280" y="740" width="120" height="80" as="geometry" />
        </mxCell>
      </root>
    </mxGraphModel>
  </diagram>
</mxfile>
